<?xml version="1.0" standalone="no"?>
<svg xmlns:xlink="http://www.w3.org/1999/xlink" id="wave" style="transform:rotate(0deg); transition: 0.3s" viewBox="0 0 1440 490" version="1.1" xmlns="http://www.w3.org/2000/svg"><defs><linearGradient id="sw-gradient-0" x1="0" x2="0" y1="1" y2="0"><stop stop-color="rgba(18.332, 78.907, 150.588, 1)" offset="0%"/><stop stop-color="rgba(105.879, 255, 11, 1)" offset="100%"/></linearGradient></defs><path style="transform:translate(0, 0px); opacity:1" fill="url(#sw-gradient-0)" d="M0,294L21.8,285.8C43.6,278,87,261,131,228.7C174.5,196,218,147,262,147C305.5,147,349,196,393,253.2C436.4,310,480,376,524,392C567.3,408,611,376,655,343C698.2,310,742,278,785,294C829.1,310,873,376,916,383.8C960,392,1004,343,1047,310.3C1090.9,278,1135,261,1178,245C1221.8,229,1265,212,1309,187.8C1352.7,163,1396,131,1440,163.3C1483.6,196,1527,294,1571,277.7C1614.5,261,1658,131,1702,98C1745.5,65,1789,131,1833,147C1876.4,163,1920,131,1964,147C2007.3,163,2051,229,2095,277.7C2138.2,327,2182,359,2225,310.3C2269.1,261,2313,131,2356,114.3C2400,98,2444,196,2487,196C2530.9,196,2575,98,2618,114.3C2661.8,131,2705,261,2749,261.3C2792.7,261,2836,131,2880,98C2923.6,65,2967,131,3011,171.5C3054.5,212,3098,229,3120,236.8L3141.8,245L3141.8,490L3120,490C3098.2,490,3055,490,3011,490C2967.3,490,2924,490,2880,490C2836.4,490,2793,490,2749,490C2705.5,490,2662,490,2618,490C2574.5,490,2531,490,2487,490C2443.6,490,2400,490,2356,490C2312.7,490,2269,490,2225,490C2181.8,490,2138,490,2095,490C2050.9,490,2007,490,1964,490C1920,490,1876,490,1833,490C1789.1,490,1745,490,1702,490C1658.2,490,1615,490,1571,490C1527.3,490,1484,490,1440,490C1396.4,490,1353,490,1309,490C1265.5,490,1222,490,1178,490C1134.5,490,1091,490,1047,490C1003.6,490,960,490,916,490C872.7,490,829,490,785,490C741.8,490,698,490,655,490C610.9,490,567,490,524,490C480,490,436,490,393,490C349.1,490,305,490,262,490C218.2,490,175,490,131,490C87.3,490,44,490,22,490L0,490Z"/></svg>