<?xml version="1.0" standalone="no"?><svg xmlns="http://www.w3.org/2000/svg" viewBox="0 0 1440 320"><path fill="#008000" fill-opacity="1" d="M0,192L20,186.7C40,181,80,171,120,181.3C160,192,200,224,240,229.3C280,235,320,213,360,181.3C400,149,440,107,480,80C520,53,560,43,600,32C640,21,680,11,720,58.7C760,107,800,213,840,234.7C880,256,920,192,960,165.3C1000,139,1040,149,1080,181.3C1120,213,1160,267,1200,293.3C1240,320,1280,320,1320,288C1360,256,1400,192,1420,160L1440,128L1440,320L1420,320C1400,320,1360,320,1320,320C1280,320,1240,320,1200,320C1160,320,1120,320,1080,320C1040,320,1000,320,960,320C920,320,880,320,840,320C800,320,760,320,720,320C680,320,640,320,600,320C560,320,520,320,480,320C440,320,400,320,360,320C320,320,280,320,240,320C200,320,160,320,120,320C80,320,40,320,20,320L0,320Z"></path></svg>